<svg width="2114" height="1072" viewBox="0 0 2114 1072" fill="none" xmlns="http://www.w3.org/2000/svg">
<g clip-path="url(#clip0_510_25064)">
<mask id="mask0_510_25064" style="mask-type:luminance" maskUnits="userSpaceOnUse" x="0" y="0" width="2114" height="1072">
<path d="M2114 0H0V1072H2114V0Z" fill="white"/>
</mask>
<g mask="url(#mask0_510_25064)">
<path d="M1661.92 629.835V789.731C1664.27 789.661 1666.63 789.626 1668.98 789.626C1827.35 789.626 1955.75 922.363 1955.75 1086.12C1955.75 1249.88 1827.35 1382.62 1668.98 1382.62C1666.63 1382.62 1664.27 1382.62 1661.92 1382.55V1542.45C1913.51 1542.45 2117.49 1338.14 2117.49 1086.16C2117.49 834.176 1913.55 629.87 1661.92 629.87" fill="#F5F5F5"/>
<path d="M1862.03 529.808C1862.03 585.074 1817.23 629.835 1761.99 629.835C1706.75 629.835 1661.95 585.039 1661.95 529.808C1661.95 474.577 1706.75 429.78 1761.99 429.78C1817.23 429.78 1862.03 474.577 1862.03 529.808Z" fill="#F5F5F5"/>
<path d="M1192.6 1092.48C1192.6 1214.75 1093.44 1313.9 971.16 1313.9C848.877 1313.9 749.716 1214.75 749.716 1092.48C749.716 970.216 848.842 871.067 971.16 871.067C1093.48 871.067 1192.6 970.216 1192.6 1092.48Z" fill="#F5F5F5"/>
<path d="M1565.25 871.875H1203.57V1317.2C1454.32 1317.2 1657.91 1118.48 1661.88 871.875H1565.21H1565.25Z" fill="#F5F5F5"/>
<path d="M1650.11 649.651C1650.11 771.286 1551.51 869.872 1429.86 869.872C1308.21 869.872 1209.61 771.286 1209.61 649.651C1209.61 528.016 1308.21 429.429 1429.86 429.429C1551.51 429.429 1650.11 528.016 1650.11 649.651Z" fill="#F5F5F5"/>
<path d="M970.844 -15.1605C848.702 -15.1605 749.681 83.848 749.681 205.975C749.681 328.102 848.702 427.11 970.844 427.11C1092.99 427.11 1192.01 328.102 1192.01 205.975C1192.01 83.848 1092.99 -15.1605 970.844 -15.1605ZM970.844 303.543C916.941 303.543 873.228 259.871 873.228 205.94C873.228 152.009 916.941 108.337 970.844 108.337C1024.75 108.337 1068.46 152.044 1068.46 205.94C1068.46 259.836 1024.75 303.543 970.844 303.543Z" fill="#F5F5F5"/>
<path d="M289.856 -12.7713C46.169 -12.7713 -151.346 184.754 -151.346 428.375C-151.346 671.996 46.169 869.486 289.821 869.486C533.473 869.486 730.987 671.996 730.987 428.375C730.987 184.754 533.473 -12.7362 289.821 -12.7362M296.638 715C294.354 715 292.07 714.965 289.821 714.93C287.537 714.965 285.288 715 283.004 715C129.623 715 5.30267 586.69 5.30267 428.375C5.30267 270.06 129.623 141.749 283.004 141.749C285.288 141.749 287.572 141.749 289.821 141.855C292.105 141.784 294.354 141.749 296.638 141.749C450.018 141.749 574.339 270.095 574.339 428.375C574.339 586.655 450.018 715 296.638 715Z" fill="#F5F5F5"/>
<path d="M744.972 871.067H287.185V1087.18H744.972V871.067Z" fill="#F5F5F5"/>
<path d="M745.183 428.059V871.243H1202.06L745.183 428.059Z" fill="#F5F5F5"/>
<path d="M2118.58 -15.7226V428.199H1660.97L2118.58 -15.7226Z" fill="#F5F5F5"/>
<path d="M1202.23 208.996C1202.23 208.996 1203.36 187.6 1203.43 186.827C1203.6 185 1203.81 183.208 1204.06 181.381C1204.52 177.797 1205.08 174.213 1205.71 170.63C1207.01 163.568 1208.63 156.576 1210.63 149.655C1214.57 136.093 1219.84 122.882 1226.37 110.269C1232.84 97.8315 1240.53 85.9912 1249.28 74.9591C1258.03 63.962 1267.84 53.7731 1278.52 44.5327C1289.24 35.2924 1300.87 27.0007 1313.2 19.8333C1325.64 12.5957 1338.82 6.51742 1352.45 1.70402C1366.37 -3.21478 1380.77 -6.79848 1395.39 -9.01194C1409.94 -11.2254 1424.59 -11.7875 1439.31 -11.7875H1660.27V208.961C1660.27 211.842 1659.07 230.885 1658.86 232.888C1658.58 235.312 1658.26 237.736 1657.91 240.125C1657.21 244.904 1656.33 249.682 1655.31 254.39C1653.27 263.7 1650.64 272.906 1647.37 281.9C1640.94 299.573 1632.19 316.402 1621.37 331.931C1610.65 347.32 1597.93 361.374 1583.56 373.706C1569.19 386.073 1553.16 396.684 1536.05 405.186C1518.62 413.864 1500.03 420.329 1480.88 424.405C1464.44 427.918 1447.96 429.007 1431.2 429.675H1202.16V208.926L1202.23 208.996Z" fill="#F5F5F5"/>
</g>
</g>
<defs>
<clipPath id="clip0_510_25064">
<rect width="2114" height="1072" fill="white"/>
</clipPath>
</defs>
</svg>