<svg width="1510" height="507" viewBox="0 0 1510 507" fill="none" xmlns="http://www.w3.org/2000/svg">
<g clip-path="url(#clip0_507_24919)">
<g clip-path="url(#clip1_507_24919)">
<mask id="mask0_507_24919" style="mask-type:luminance" maskUnits="userSpaceOnUse" x="0" y="0" width="1510" height="507">
<path d="M1510 0H0V507H1510V0Z" fill="white"/>
</mask>
<g mask="url(#mask0_507_24919)">
<path d="M183.22 337.952H39.8018V207.836C39.8018 201.359 45.0408 196.12 51.444 196.12H171.505C177.981 196.12 183.147 201.359 183.147 207.836V337.952H183.22Z" fill="#FDC932"/>
<path d="M111.474 181.711C72.0362 181.711 39.9473 149.618 39.9473 110.103C39.9473 70.5885 71.9635 38.569 111.474 38.569C150.985 38.569 183.001 70.6613 183.001 110.103C183.001 149.546 150.912 181.711 111.474 181.711ZM111.474 67.3865C87.8988 67.3865 68.7618 86.5255 68.7618 110.103C68.7618 133.682 87.8988 152.82 111.474 152.82C135.05 152.82 154.187 133.609 154.187 110.103C154.187 86.5983 135.05 67.3865 111.474 67.3865Z" fill="#2770A1"/>
<path d="M267.626 38.2051C267.626 38.2051 260.786 38.569 260.495 38.569C259.913 38.569 259.331 38.7145 258.749 38.7873C257.585 38.9329 256.42 39.0784 255.329 39.2967C253.073 39.7333 250.818 40.2427 248.562 40.8249C244.196 42.062 239.976 43.7358 235.901 45.7734C231.899 47.811 228.115 50.2125 224.55 52.9778C221.057 55.7431 217.783 58.7995 214.799 62.2198C211.816 65.6401 209.197 69.2786 206.868 73.1355C204.54 77.0652 202.575 81.2132 201.047 85.5067C199.446 89.873 198.282 94.4576 197.627 99.0422C196.899 103.627 196.754 108.284 196.754 112.869V182.511H267.626C268.572 182.511 274.684 182.147 275.339 182.075C276.14 182.002 276.867 181.856 277.668 181.784C279.196 181.565 280.724 181.274 282.252 180.983C285.235 180.328 288.218 179.528 291.056 178.509C296.732 176.471 302.116 173.706 307.137 170.286C312.085 166.938 316.596 162.863 320.526 158.351C324.455 153.839 327.948 148.673 330.64 143.36C333.187 138.339 335.733 133.172 337.261 127.714C338.862 122.038 339.153 116.144 339.371 110.322V38.2051H267.626Z" fill="#56B259"/>
<path d="M268.208 196.12C229.134 196.12 197.336 227.921 197.336 266.999C197.336 306.078 229.134 337.879 268.208 337.879C307.282 337.879 339.08 306.078 339.08 266.999C339.08 227.921 307.282 196.12 268.208 196.12Z" fill="#35723C"/>
<path d="M395.327 116.653V38.569H423.56C428.144 38.569 432 39.0784 435.275 39.9516C438.549 40.8977 441.168 42.2076 443.279 43.9541C445.316 45.7006 446.844 47.7382 447.79 50.2124C448.736 52.6139 449.173 55.3064 449.173 58.2173C449.173 61.1282 448.809 63.3113 448.081 65.3489C447.353 67.3138 446.408 68.9875 445.243 70.3702C444.079 71.6801 442.769 72.7716 441.314 73.4994C439.859 74.2998 438.258 74.8092 436.73 75.1003V75.3186C442.114 76.1191 446.189 78.2295 448.809 81.7225C451.428 85.2156 452.738 89.5091 452.738 94.7487C452.738 98.8239 452.083 102.244 450.846 105.082C449.609 107.92 447.863 110.176 445.607 111.923C443.351 113.669 440.659 114.906 437.53 115.634C434.401 116.362 430.982 116.798 427.271 116.798H395.4L395.327 116.653ZM402.676 73.0627H421.304C425.16 73.0627 428.362 72.7716 430.982 72.1167C433.601 71.4618 435.711 70.5157 437.239 69.2058C438.767 67.8959 440.004 66.3677 440.659 64.5484C441.314 62.7292 441.678 60.6188 441.678 58.2173C441.678 55.8158 441.241 53.7055 440.441 51.9589C439.64 50.2852 438.403 48.9025 436.657 47.811C434.911 46.7922 432.655 45.9917 429.89 45.555C427.125 45.1184 423.705 44.8273 419.63 44.8273H402.604V73.0627H402.676ZM402.676 110.395H421.449C425.524 110.395 429.017 110.249 432 109.885C434.984 109.521 437.458 108.794 439.422 107.629C441.387 106.465 442.842 104.937 443.788 102.826C444.807 100.789 445.243 98.0234 445.243 94.6759C445.243 91.3284 444.734 88.7814 443.642 86.8166C442.551 84.8517 441.023 83.3235 438.986 82.232C436.948 81.1404 434.547 80.4127 431.709 80.0488C428.871 79.6849 425.743 79.4666 422.25 79.4666H402.604V110.467L402.676 110.395Z" fill="#706F6F"/>
<path d="M473.548 116.653H467.072V60.4733H473.548V71.0251H473.767C475.586 66.5133 477.914 63.3841 480.752 61.6376C483.59 59.8911 487.373 59.0178 492.103 59.0178V66.0767C488.392 66.0767 485.409 66.5861 483.008 67.8232C480.606 69.0603 478.714 70.7341 477.332 72.7717C475.949 74.882 474.931 77.3563 474.421 80.1944C473.839 83.0325 473.621 86.0161 473.621 89.1453V116.726L473.548 116.653Z" fill="#706F6F"/>
<path d="M503.455 38.569H510.585V48.2476H503.455V38.569ZM503.818 60.4732H510.367V116.653H503.818V60.4732Z" fill="#706F6F"/>
<path d="M546.604 116.871C545.803 117.017 544.785 117.235 543.475 117.599C542.165 117.963 540.71 118.181 539.109 118.181C535.835 118.181 533.361 117.381 531.687 115.707C530.013 114.106 529.14 111.195 529.14 106.974V65.8584H521.209V60.4005H529.14V44.7546H535.616V60.4005H546.167V65.8584H535.616V104.355C535.616 105.737 535.616 106.902 535.762 107.92C535.835 108.939 536.053 109.74 536.417 110.395C536.781 111.05 537.363 111.486 538.09 111.777C538.818 112.068 539.909 112.214 541.292 112.214C542.165 112.214 543.038 112.141 543.911 111.996C544.785 111.85 545.731 111.704 546.531 111.486V116.798L546.604 116.871Z" fill="#706F6F"/>
<path d="M557.664 38.569H564.794V48.2476H557.664V38.569ZM557.955 60.4732H564.503V116.653H557.955V60.4732Z" fill="#706F6F"/>
<path d="M584.877 99.115C585.896 103.991 587.715 107.411 590.335 109.376C592.954 111.341 596.738 112.359 601.686 112.359C604.087 112.359 606.124 112.068 607.871 111.486C609.617 110.904 611 110.104 612.164 109.157C613.328 108.211 614.129 107.047 614.711 105.81C615.293 104.573 615.584 103.263 615.584 101.88C615.584 99.115 614.711 97.0774 612.964 95.7675C611.218 94.4576 608.962 93.366 606.27 92.6383C603.578 91.9106 600.74 91.2557 597.611 90.6735C594.482 90.1641 591.572 89.2908 588.952 88.272C586.26 87.1805 584.077 85.6523 582.258 83.6147C580.512 81.577 579.638 78.739 579.638 75.0276C579.638 70.2974 581.385 66.5133 584.805 63.4569C588.225 60.4733 593.1 58.9451 599.357 58.9451C605.615 58.9451 610.345 60.255 614.201 63.0203C617.985 65.7128 620.313 70.2974 621.114 76.6286H614.492C613.91 72.2623 612.237 69.2059 609.544 67.4594C606.852 65.7128 603.432 64.7668 599.285 64.7668C595.137 64.7668 592.008 65.6401 589.825 67.4594C587.642 69.2059 586.551 71.5346 586.551 74.4454C586.551 76.9924 587.424 78.8845 589.17 80.2672C590.917 81.577 593.172 82.6686 595.865 83.5419C598.557 84.3424 601.468 85.1429 604.524 85.7978C607.653 86.4527 610.49 87.3988 613.183 88.5631C615.875 89.7275 618.058 91.4012 619.877 93.3661C621.623 95.4037 622.496 98.2417 622.496 101.808C622.496 104.5 621.914 106.829 620.75 108.939C619.586 110.977 617.985 112.723 615.948 114.106C613.91 115.489 611.509 116.507 608.744 117.162C605.979 117.817 602.923 118.181 599.576 118.181C596.229 118.181 593.318 117.672 590.771 116.726C588.225 115.78 586.042 114.397 584.223 112.651C582.403 110.904 581.021 108.866 580.002 106.61C578.983 104.282 578.401 101.808 578.256 99.115H584.877Z" fill="#706F6F"/>
<path d="M635.303 116.653V38.569H641.779V68.2598C644.398 65.4945 647.091 63.3113 649.856 61.5648C652.621 59.8183 655.968 58.945 659.897 58.945C663.39 58.945 666.591 59.5272 669.575 60.7643C672.558 61.9287 675.032 64.039 677.069 67.0227C678.452 69.0603 679.252 71.0979 679.543 73.281C679.762 75.3914 679.907 77.6473 679.907 79.976V116.726H673.431V80.0488C673.431 75.0276 672.34 71.1707 670.084 68.6237C667.828 66.0767 664.117 64.8395 658.951 64.8395C656.914 64.8395 655.095 65.1306 653.421 65.7856C651.747 66.3677 650.292 67.241 648.91 68.2598C647.6 69.2786 646.436 70.4429 645.49 71.7528C644.544 73.0627 643.816 74.4454 643.307 75.9008C642.652 77.7201 642.288 79.4666 642.143 81.1404C641.997 82.8141 641.924 84.6334 641.924 86.5982V116.871H635.448L635.303 116.653Z" fill="#706F6F"/>
<path d="M953.427 440.196V362.112H1003.78V368.37H960.849V396.605H999.851V402.864H960.849V440.196H953.427Z" fill="#706F6F"/>
<path d="M1035.87 441.724C1032.23 441.651 1028.88 440.996 1025.75 439.759C1022.63 438.522 1019.86 436.703 1017.53 434.228C1015.2 431.754 1013.31 428.698 1011.93 424.986C1010.55 421.275 1009.89 416.982 1009.89 412.106C1009.89 407.958 1010.47 404.101 1011.49 400.535C1012.58 396.969 1014.19 393.84 1016.37 391.148C1018.55 388.455 1021.24 386.345 1024.52 384.816C1027.79 383.288 1031.58 382.488 1035.94 382.488C1040.31 382.488 1044.16 383.288 1047.44 384.816C1050.71 386.345 1053.41 388.455 1055.59 391.075C1057.77 393.695 1059.37 396.824 1060.39 400.462C1061.41 404.101 1061.99 407.958 1061.99 412.033C1061.99 416.545 1061.41 420.547 1060.17 424.186C1058.94 427.824 1057.19 430.881 1054.93 433.501C1052.68 436.12 1049.91 438.085 1046.71 439.541C1043.51 440.923 1039.94 441.651 1036.01 441.651M1055.08 412.033C1055.08 408.686 1054.71 405.629 1053.99 402.718C1053.26 399.807 1052.17 397.333 1050.64 395.15C1049.11 393.04 1047.15 391.366 1044.82 390.129C1042.42 388.892 1039.51 388.309 1036.01 388.309C1032.52 388.309 1029.68 388.964 1027.28 390.274C1024.88 391.584 1022.92 393.404 1021.39 395.587C1019.86 397.77 1018.77 400.317 1018.04 403.155C1017.31 405.993 1016.95 408.977 1016.95 411.96C1016.95 415.453 1017.39 418.655 1018.19 421.566C1018.99 424.477 1020.22 427.024 1021.83 429.134C1023.43 431.245 1025.39 432.846 1027.79 434.01C1030.19 435.174 1032.89 435.757 1036.01 435.757C1039.43 435.757 1042.34 435.102 1044.75 433.719C1047.15 432.409 1049.18 430.59 1050.64 428.334C1052.17 426.078 1053.26 423.531 1053.99 420.766C1054.71 418 1055.08 415.017 1055.08 411.96" fill="#706F6F"/>
<path d="M1111.91 384.016H1118.38V440.196H1111.91V432.409C1111.03 433.428 1110.09 434.447 1109 435.538C1107.91 436.63 1106.67 437.649 1105.29 438.522C1103.9 439.395 1102.23 440.196 1100.34 440.778C1098.45 441.36 1096.26 441.724 1093.79 441.724C1090.01 441.724 1086.88 441.214 1084.33 440.123C1081.78 439.104 1079.75 437.576 1078.22 435.757C1076.69 433.865 1075.53 431.681 1074.87 429.207C1074.22 426.733 1073.85 423.968 1073.85 421.057V384.089H1080.33V420.984C1080.33 425.86 1081.42 429.571 1083.68 432.118C1085.93 434.665 1089.57 435.975 1094.74 435.975C1097.43 435.975 1099.83 435.465 1101.94 434.374C1104.05 433.355 1105.87 431.827 1107.32 430.008C1108.78 428.116 1109.87 425.86 1110.67 423.313C1111.47 420.766 1111.83 417.855 1111.83 414.726V384.162L1111.91 384.016Z" fill="#706F6F"/>
<path d="M1140.65 440.196H1134.17V384.016H1140.65V391.803C1143.27 389.037 1145.96 386.854 1148.73 385.108C1151.49 383.361 1154.84 382.488 1158.77 382.488C1162.26 382.488 1165.46 383.07 1168.45 384.307C1171.43 385.471 1173.9 387.582 1175.94 390.565C1177.32 392.603 1178.12 394.641 1178.41 396.824C1178.63 398.934 1178.78 401.19 1178.78 403.519V440.268H1172.3V403.592C1172.3 398.498 1171.21 394.713 1168.95 392.166C1166.7 389.619 1162.99 388.382 1157.82 388.382C1155.78 388.382 1153.97 388.673 1152.29 389.328C1150.62 389.91 1149.16 390.784 1147.78 391.73C1146.4 392.676 1145.31 393.913 1144.36 395.223C1143.41 396.533 1142.69 397.915 1142.18 399.371C1141.52 401.19 1141.16 402.937 1141.01 404.538C1140.87 406.211 1140.79 408.031 1140.79 409.995V440.268L1140.65 440.196Z" fill="#706F6F"/>
<path d="M1237.79 362.112H1244.34V440.196H1237.79V430.299H1237.57C1236.63 432.191 1235.39 433.792 1233.93 435.247C1232.48 436.703 1230.8 437.794 1229.06 438.74C1227.31 439.686 1225.49 440.414 1223.6 440.923C1221.71 441.433 1219.89 441.651 1218.07 441.651C1213.49 441.651 1209.63 440.923 1206.43 439.395C1203.23 437.867 1200.61 435.829 1198.57 433.137C1196.53 430.517 1195 427.388 1194.06 423.749C1193.11 420.111 1192.68 416.254 1192.68 412.106C1192.68 407.958 1193.19 404.465 1194.2 400.826C1195.22 397.188 1196.75 394.058 1198.79 391.366C1200.83 388.673 1203.44 386.49 1206.57 384.889C1209.7 383.288 1213.41 382.488 1217.71 382.488C1221.71 382.488 1225.49 383.361 1229.13 385.108C1232.77 386.854 1235.68 389.474 1237.72 392.967V362.039L1237.79 362.112ZM1237.79 411.888C1237.79 408.686 1237.35 405.702 1236.48 402.864C1235.61 400.026 1234.37 397.552 1232.7 395.368C1231.1 393.258 1229.06 391.511 1226.73 390.274C1224.4 388.964 1221.71 388.382 1218.73 388.382C1215.31 388.382 1212.39 389.037 1209.92 390.347C1207.45 391.657 1205.41 393.549 1203.81 395.805C1202.21 398.061 1201.04 400.826 1200.32 403.883C1199.59 406.939 1199.3 410.287 1199.44 413.78C1199.44 417.345 1199.95 420.475 1200.9 423.167C1201.84 425.86 1203.23 428.188 1204.97 430.08C1206.72 431.972 1208.76 433.428 1211.09 434.374C1213.41 435.32 1215.89 435.829 1218.65 435.829C1221.71 435.829 1224.4 435.247 1226.8 434.01C1229.2 432.773 1231.17 431.099 1232.77 428.989C1234.37 426.878 1235.61 424.331 1236.41 421.421C1237.21 418.51 1237.64 415.308 1237.64 411.96" fill="#706F6F"/>
<path d="M1286.54 407.448C1287.78 407.303 1289.23 407.085 1290.91 406.793C1292.58 406.502 1293.96 406.066 1295.05 405.629C1296.15 405.12 1296.8 404.246 1297.09 403.082C1297.31 401.845 1297.46 400.753 1297.46 399.735C1297.46 396.387 1296.36 393.695 1294.25 391.511C1292.14 389.401 1288.51 388.309 1283.49 388.309C1281.23 388.309 1279.19 388.528 1277.3 388.892C1275.41 389.256 1273.81 389.983 1272.35 390.929C1270.97 391.875 1269.81 393.185 1268.86 394.859C1267.99 396.46 1267.33 398.498 1267.04 400.972H1260.42C1260.64 397.624 1261.36 394.786 1262.67 392.457C1263.98 390.129 1265.66 388.164 1267.7 386.709C1269.73 385.253 1272.13 384.161 1274.83 383.434C1277.52 382.779 1280.43 382.415 1283.41 382.415C1286.25 382.415 1288.87 382.706 1291.42 383.361C1293.89 383.943 1296.07 384.962 1297.97 386.272C1299.78 387.582 1301.24 389.401 1302.26 391.657C1303.28 393.913 1303.86 396.605 1303.86 399.88V430.444C1303.86 432.991 1304.3 434.592 1305.17 435.247C1306.04 435.975 1307.93 435.757 1310.63 434.738V439.832C1310.12 439.977 1309.39 440.196 1308.44 440.487C1307.5 440.778 1306.48 440.923 1305.53 440.923C1304.51 440.923 1303.57 440.778 1302.62 440.56C1301.53 440.414 1300.66 440.05 1300 439.541C1299.35 439.031 1298.84 438.376 1298.4 437.576C1298.04 436.848 1297.75 435.975 1297.6 435.102C1297.46 434.228 1297.38 433.21 1297.38 432.191C1294.62 435.247 1291.49 437.576 1287.92 439.104C1284.36 440.705 1280.57 441.506 1276.43 441.506C1273.95 441.506 1271.62 441.142 1269.3 440.56C1267.04 439.905 1265 438.886 1263.26 437.503C1261.51 436.12 1260.13 434.447 1259.11 432.482C1258.09 430.517 1257.58 428.116 1257.58 425.35C1257.58 415.817 1264.13 410.141 1277.23 408.467L1286.25 407.303L1286.54 407.448ZM1297.53 410.723C1294.76 411.887 1292 412.615 1289.16 412.979C1286.32 413.343 1283.49 413.634 1280.72 413.852C1275.7 414.216 1271.84 415.308 1269.08 417.2C1266.31 419.092 1264.93 421.93 1264.93 425.787C1264.93 427.533 1265.29 428.989 1265.95 430.299C1266.6 431.536 1267.55 432.627 1268.64 433.428C1269.73 434.228 1271.04 434.883 1272.57 435.247C1274.03 435.611 1275.55 435.829 1277.08 435.829C1279.7 435.829 1282.25 435.465 1284.65 434.883C1287.12 434.228 1289.31 433.21 1291.2 431.9C1293.09 430.59 1294.69 428.843 1295.78 426.806C1296.95 424.768 1297.53 422.294 1297.53 419.456V410.65V410.723Z" fill="#706F6F"/>
<path d="M1340.75 440.414C1339.95 440.56 1338.93 440.778 1337.62 441.214C1336.31 441.578 1334.86 441.724 1333.26 441.724C1329.98 441.724 1327.51 440.923 1325.83 439.322C1324.16 437.721 1323.29 434.811 1323.29 430.59V389.474H1315.36V384.016H1323.29V368.37H1329.76V384.016H1340.31V389.474H1329.76V427.97C1329.76 429.353 1329.76 430.517 1329.91 431.536C1329.98 432.555 1330.2 433.355 1330.56 434.01C1330.93 434.665 1331.51 435.102 1332.24 435.393C1332.96 435.684 1334.06 435.829 1335.44 435.829C1336.31 435.829 1337.19 435.829 1338.06 435.611C1338.93 435.466 1339.88 435.32 1340.68 435.102V440.414H1340.75Z" fill="#706F6F"/>
<path d="M1351.81 362.112H1358.94V371.79H1351.81V362.112ZM1352.1 384.016H1358.65V440.196H1352.1V384.016Z" fill="#706F6F"/>
<path d="M1397.58 441.724C1393.94 441.651 1390.59 440.996 1387.47 439.759C1384.34 438.522 1381.57 436.703 1379.24 434.228C1376.91 431.754 1375.02 428.698 1373.64 424.986C1372.26 421.275 1371.6 416.982 1371.6 412.106C1371.6 407.958 1372.11 404.101 1373.2 400.535C1374.29 396.969 1375.9 393.84 1378.08 391.148C1380.26 388.455 1382.95 386.345 1386.23 384.816C1389.5 383.288 1393.29 382.488 1397.65 382.488C1402.02 382.488 1405.87 383.288 1409.15 384.816C1412.42 386.345 1415.12 388.455 1417.3 391.075C1419.48 393.695 1421.08 396.824 1422.1 400.462C1423.12 404.101 1423.7 407.958 1423.7 412.033C1423.7 416.545 1423.12 420.547 1421.88 424.186C1420.65 427.824 1418.9 430.881 1416.64 433.501C1414.39 436.12 1411.62 438.085 1408.42 439.541C1405.22 440.923 1401.65 441.651 1397.72 441.651M1416.79 412.033C1416.79 408.686 1416.43 405.629 1415.7 402.718C1414.97 399.807 1413.88 397.333 1412.35 395.15C1410.82 393.04 1408.86 391.366 1406.53 390.129C1404.13 388.892 1401.22 388.309 1397.72 388.309C1394.23 388.309 1391.39 388.964 1388.99 390.274C1386.59 391.584 1384.63 393.404 1383.1 395.587C1381.57 397.77 1380.48 400.317 1379.75 403.155C1379.02 405.993 1378.66 408.977 1378.66 411.96C1378.66 415.453 1379.1 418.655 1379.9 421.566C1380.7 424.477 1381.94 427.024 1383.54 429.134C1385.14 431.245 1387.1 432.846 1389.5 434.01C1391.9 435.174 1394.6 435.757 1397.72 435.757C1401.14 435.757 1404.06 435.102 1406.46 433.719C1408.86 432.409 1410.9 430.59 1412.35 428.334C1413.88 426.078 1414.97 423.531 1415.7 420.766C1416.43 418 1416.79 415.017 1416.79 411.96" fill="#706F6F"/>
<path d="M1442.04 440.196H1435.56V384.016H1442.04V391.803C1444.66 389.037 1447.35 386.854 1450.11 385.108C1452.88 383.361 1456.23 382.488 1460.16 382.488C1463.65 382.488 1466.85 383.07 1469.83 384.307C1472.82 385.471 1475.29 387.582 1477.33 390.565C1478.71 392.603 1479.51 394.641 1479.8 396.824C1480.02 398.934 1480.17 401.19 1480.17 403.519V440.268H1473.69V403.592C1473.69 398.498 1472.6 394.713 1470.34 392.166C1468.09 389.619 1464.38 388.382 1459.21 388.382C1457.17 388.382 1455.35 388.673 1453.68 389.328C1452.01 389.91 1450.55 390.784 1449.17 391.73C1447.79 392.676 1446.69 393.913 1445.75 395.223C1444.8 396.533 1444.08 397.915 1443.57 399.371C1442.91 401.19 1442.55 402.937 1442.4 404.538C1442.26 406.211 1442.18 408.031 1442.18 409.995V440.268L1442.04 440.196Z" fill="#706F6F"/>
<path d="M795.529 195.465V166.429H777.848C777.848 166.429 776.101 166.502 775.883 166.574C775.665 166.574 775.519 166.574 775.301 166.647C774.937 166.647 774.501 166.793 774.137 166.865C773.409 167.011 772.609 167.229 771.881 167.448C770.426 167.957 769.116 168.612 767.806 169.485C766.569 170.286 765.405 171.304 764.459 172.396C763.44 173.488 762.567 174.725 761.912 176.107C761.185 177.49 760.675 178.873 760.384 180.401C760.093 181.711 760.021 182.948 759.948 184.258V195.537H738.919V222.172H758.856V310.08C758.856 318.958 760.966 325.58 765.114 329.874C771.59 336.569 783.596 339.625 801.278 339.043L818.959 338.388V310.444C817.722 310.517 816.485 310.589 815.248 310.662C814.011 310.662 812.774 310.662 811.683 310.662C804.043 310.662 799.531 309.934 798.076 308.479C796.621 307.024 795.82 303.385 795.82 297.563V222.099H819.032V195.465H795.529Z" fill="black"/>
<path d="M920.538 190.735C909.333 190.735 900.31 193.645 893.324 199.54C889.031 203.033 884.011 209.51 878.262 219.043V210.747C878.262 210.747 878.262 210.456 878.262 210.31V194.155H860.29C860.29 194.155 858.47 194.228 858.325 194.228C858.107 194.228 857.961 194.228 857.743 194.228C857.379 194.228 856.942 194.373 856.579 194.446C855.851 194.591 855.051 194.81 854.323 195.028C852.868 195.465 851.485 196.12 850.248 196.92C849.011 197.721 847.847 198.667 846.828 199.685C845.809 200.777 844.936 201.941 844.281 203.178C843.554 204.416 843.408 205.798 843.044 207.181C842.753 208.418 842.681 209.582 842.608 210.819V336.86H880.227V268.6C880.227 257.175 881.682 248.661 884.593 243.203C889.759 233.451 899.8 228.503 914.863 228.503C916.027 228.503 917.482 228.503 919.301 228.649C921.12 228.721 923.23 228.94 925.559 229.158V190.88C923.885 190.807 922.794 190.735 922.357 190.662C921.848 190.662 921.266 190.662 920.611 190.662" fill="black"/>
<path d="M985.808 194.155H947.97V336.933H985.808V194.155Z" fill="black"/>
<path d="M1062.79 195.465V166.429H1045.11C1045.11 166.429 1043.36 166.502 1043.15 166.574C1042.93 166.574 1042.78 166.574 1042.56 166.647C1042.2 166.647 1041.76 166.793 1041.4 166.865C1040.67 167.011 1039.87 167.229 1039.14 167.448C1037.69 167.957 1036.38 168.612 1035.07 169.485C1033.83 170.286 1032.67 171.304 1031.72 172.396C1030.7 173.488 1029.83 174.725 1029.18 176.107C1028.45 177.49 1027.94 178.873 1027.65 180.401C1027.36 181.711 1027.28 182.948 1027.21 184.258V195.537H1007.27V222.172H1027.21V310.08C1027.21 318.958 1029.32 325.58 1033.47 329.874C1039.94 336.569 1051.95 339.625 1069.63 339.043L1087.31 338.388V310.444C1086.08 310.517 1084.84 310.589 1083.6 310.662C1082.37 310.662 1081.13 310.662 1080.04 310.662C1072.47 310.662 1067.89 309.934 1066.43 308.479C1064.97 307.024 1064.17 303.385 1064.17 297.563V222.099H1087.39V195.465H1062.86H1062.79Z" fill="black"/>
<path d="M1149.67 194.155H1111.83V336.933H1149.67V194.155Z" fill="black"/>
<path d="M1250.01 189.57C1225.49 189.57 1207.16 197.138 1195.15 212.202C1183.07 227.339 1177.03 245.168 1177.03 265.762C1177.03 286.356 1183.07 304.622 1195.15 319.54C1207.23 334.386 1225.49 341.881 1250.01 341.881C1274.54 341.881 1292.87 334.458 1304.88 319.54C1316.96 304.695 1323 286.72 1323 265.762C1323 244.804 1316.96 227.339 1304.88 212.202C1292.8 197.066 1274.54 189.57 1250.01 189.57ZM1275.04 298.873C1269.22 306.66 1260.78 310.517 1249.87 310.517C1238.95 310.517 1230.51 306.66 1224.62 298.873C1218.73 291.087 1215.74 280.098 1215.74 265.762C1215.74 251.426 1218.73 240.438 1224.62 232.724C1230.51 225.01 1238.95 221.153 1249.87 221.153C1260.78 221.153 1269.15 225.01 1275.04 232.724C1280.87 240.438 1283.85 251.426 1283.85 265.762C1283.85 280.098 1280.94 291.087 1275.04 298.873Z" fill="black"/>
<path d="M1464.89 202.305C1455.5 194.591 1443.49 190.734 1428.8 190.734C1417.08 190.734 1407.33 193.645 1399.69 199.394C1396.05 202.16 1392.19 206.526 1388.12 212.348C1388.12 212.057 1388.12 211.693 1388.12 211.402V194.228H1368.98C1368.98 194.228 1367.09 194.3 1366.95 194.373C1366.73 194.373 1366.51 194.373 1366.29 194.446C1365.85 194.446 1365.49 194.591 1365.05 194.664C1364.25 194.81 1363.45 195.028 1362.65 195.319C1361.12 195.829 1359.67 196.483 1358.29 197.357C1356.98 198.23 1355.74 199.176 1354.65 200.34C1353.56 201.432 1352.68 202.742 1351.88 204.052C1351.16 205.434 1350.57 206.89 1350.21 208.345C1349.92 209.582 1349.85 210.892 1349.77 212.202V337.224H1387.1V259.94C1387.1 251.135 1388.34 243.858 1390.74 238.182C1395.4 227.411 1404.06 222.099 1416.64 222.099C1426.9 222.099 1433.82 225.738 1437.45 233.088C1439.42 237.09 1440.44 242.912 1440.44 250.407V337.297H1478.71V241.092C1478.71 223.191 1474.05 210.383 1464.67 202.669" fill="black"/>
<path d="M717.381 194.155H698.244C698.244 194.155 696.352 194.228 696.134 194.3C695.915 194.3 695.697 194.3 695.479 194.373C695.042 194.373 694.678 194.519 694.242 194.591C693.441 194.737 692.641 194.955 691.841 195.246C690.313 195.756 688.857 196.411 687.475 197.284C686.165 198.084 684.928 199.103 683.837 200.195C682.745 201.286 681.872 202.596 681.072 203.906C680.344 205.289 680.126 206.744 679.762 208.2C679.471 209.51 679.398 210.747 679.325 212.057V229.886V271.948C679.325 281.117 678.088 288.467 675.687 294.07C670.957 304.404 662.298 309.498 649.637 309.498C639.742 309.498 633.047 305.859 629.7 298.655C627.808 294.58 626.862 288.467 626.862 280.316V194.228H607.725C607.725 194.228 605.833 194.3 605.688 194.373C605.47 194.373 605.251 194.373 605.033 194.446C604.596 194.446 604.233 194.591 603.796 194.664C602.996 194.81 602.195 195.028 601.395 195.319C599.867 195.829 598.412 196.483 597.029 197.357C595.719 198.157 594.482 199.176 593.391 200.268C592.299 201.359 591.426 202.669 590.699 203.979C589.971 205.362 589.389 206.817 589.025 208.272C588.734 209.582 588.661 210.819 588.588 212.129V280.389C588.588 296.69 590.626 309.061 594.773 317.503C602.122 332.712 616.311 340.28 637.34 340.28C644.617 340.28 651.02 339.334 656.477 337.369C661.935 335.405 667.537 331.839 673.431 326.599C675.323 324.925 676.997 323.033 678.379 320.85C679.762 318.667 680.635 317.357 680.999 316.921V337.078H717.308C717.308 337.078 717.308 194.373 717.308 194.3" fill="black"/>
<path d="M1128.79 147.799C1128.79 147.799 1128.35 147.799 1128.13 147.872C1127.7 147.872 1127.33 148.018 1126.9 148.09C1126.1 148.236 1125.3 148.454 1124.5 148.745C1122.97 149.255 1121.51 149.91 1120.13 150.783C1118.82 151.583 1117.58 152.602 1116.49 153.694C1115.4 154.785 1114.53 156.022 1113.73 157.405C1113 158.788 1112.42 160.243 1112.05 161.699C1111.76 162.936 1111.69 164.246 1111.62 165.555V183.312H1149.67V147.726H1130.75C1130.75 147.726 1128.86 147.799 1128.72 147.872" fill="black"/>
<path d="M964.852 147.799C964.852 147.799 964.415 147.799 964.197 147.872C963.76 147.872 963.396 148.018 962.96 148.09C962.159 148.236 961.359 148.454 960.558 148.745C959.03 149.255 957.575 149.91 956.193 150.783C954.883 151.583 953.646 152.602 952.554 153.694C951.463 154.785 950.59 156.022 949.789 157.405C949.062 158.788 948.48 160.243 948.116 161.699C947.825 162.936 947.752 164.246 947.679 165.555V183.312H985.735V147.726H966.816C966.816 147.726 964.924 147.799 964.779 147.872" fill="black"/>
<path d="M552.061 336.933V143.87H533.506C533.506 143.87 531.614 143.942 531.469 144.015C531.25 144.015 531.032 144.015 530.887 144.015C530.45 144.015 530.086 144.161 529.65 144.233C528.849 144.379 528.049 144.597 527.321 144.816C525.793 145.325 524.411 145.98 523.101 146.78C521.791 147.581 520.627 148.6 519.535 149.691C516.334 153.039 514.878 157.26 514.587 161.771C514.515 163.009 514.442 164.246 514.515 165.483V278.57L437.894 143.87H395.618V337.006H433.237V199.976L511.822 337.006H552.206V336.86H552.061V336.933Z" fill="black"/>
</g>
</g>
</g>
<defs>
<clipPath id="clip0_507_24919">
<rect width="1510" height="507" fill="white"/>
</clipPath>
<clipPath id="clip1_507_24919">
<rect width="1510" height="507" fill="white"/>
</clipPath>
</defs>
</svg>